PathFileType	4	(X/Y/Z)	OpenSim_Sub03_EMGStiffKnee_Magnet.trc
DataRate	CameraRate	NumFrames	NumMarkers	Units	OrigDataRate	OrigDataStartFrame	OrigNumFrames
100	100	30	8	m	100	3799	7597
Frame#	Time	torso_imu_offset_imu	pelvis_imu_offset_imu	tibia_r_imu_offset_imu	femur_r_imu_offset_imu	tibia_l_imu_offset_imu	femur_l_imu_offset_imu	toes_r_imu_offset_imu	toes_l_imu_offset_imu
				X1	Y1	Z1	X2	Y2	Z2	X3	Y3	Z3	X4	Y4	Z4	X5	Y5	Z5	X6	Y6	Z6	X7	Y7	Z7	X8		Y8	Z8	

3799	37.98000000	-0.86064039	-0.20781421	0.27444444	-0.63664957	0.10114029	-0.68361273	-0.67070950	-0.41896949	-0.01557001	-0.83174608	-0.12565077	0.11386842	-0.61107683	0.53665601	0.12914345	-0.62642796	0.50224034	0.23741083	-0.67251956	-0.09842811	-0.42039331	-0.74492457	-0.11575681	-0.31330122
3800	37.99000000	-0.86290993	-0.20966549	0.27484423	-0.63086471	0.09650135	-0.68478898	-0.66501984	-0.42715803	-0.00571268	-0.83050636	-0.12255999	0.11568994	-0.60036920	0.54172166	0.12351781	-0.62094732	0.51036271	0.24224824	-0.68615854	-0.10787168	-0.40128362	-0.74895767	-0.11562481	-0.30194211
3801	38	-0.86513264	-0.20926948	0.27367146	-0.63296608	0.09218304	-0.69325733	-0.65893855	-0.43085531	0.00746992	-0.82944871	-0.11845546	0.11584594	-0.60045276	0.54658894	0.12910080	-0.62010606	0.51653344	0.24022523	-0.68901267	-0.11389054	-0.38641104	-0.74647475	-0.11093999	-0.29884797
3802	38.01000000	-0.86219619	-0.21098281	0.27246109	-0.63573423	0.08938278	-0.69857129	-0.65589267	-0.43901718	0.01715903	-0.83237311	-0.11993834	0.11802256	-0.59261501	0.55151948	0.12302215	-0.61631961	0.52881436	0.23464347	-0.69104325	-0.12903230	-0.37893504	-0.75327089	-0.10491228	-0.28992675
3803	38.02000000	-0.86681558	-0.20490473	0.27082958	-0.62818036	0.08919648	-0.68962771	-0.64956275	-0.44166056	0.03663384	-0.82684467	-0.12550164	0.11659969	-0.58832992	0.56045183	0.11580810	-0.61341849	0.52340815	0.23224425	-0.69403343	-0.14005609	-0.37100442	-0.75728852	-0.10446034	-0.27694280
3804	38.03000000	-0.87078418	-0.20177816	0.27350196	-0.62540141	0.08712660	-0.68830158	-0.63988628	-0.45393577	0.04674613	-0.82828565	-0.12502154	0.11901880	-0.58009258	0.57232377	0.11156210	-0.61050120	0.52852650	0.22823489	-0.69469131	-0.13559767	-0.36527874	-0.76345063	-0.10229357	-0.26613104
3805	38.04000000	-0.87178278	-0.20257134	0.26889178	-0.62527141	0.07791358	-0.69245708	-0.63429955	-0.47159748	0.04691949	-0.82972753	-0.13376294	0.12358927	-0.57312881	0.58014114	0.10421624	-0.61481259	0.53505423	0.22553155	-0.69402862	-0.13583565	-0.36314458	-0.76477405	-0.09322987	-0.25491915
3806	38.05000000	-0.86708187	-0.20229447	0.26589626	-0.62771777	0.07941583	-0.69865378	-0.62913147	-0.47568417	0.04942706	-0.82979418	-0.13656293	0.12127384	-0.57002271	0.58584943	0.10175928	-0.61014016	0.53431907	0.23295088	-0.69714339	-0.14201722	-0.35931004	-0.77213003	-0.09068689	-0.24009773
3807	38.06000000	-0.87164462	-0.20269245	0.27028431	-0.62315176	0.07871252	-0.69294670	-0.61997155	-0.48360122	0.04835195	-0.82500756	-0.14131511	0.12718543	-0.56195129	0.59637670	0.10286262	-0.61190353	0.53637174	0.22620573	-0.69953901	-0.13765283	-0.35671220	-0.77423678	-0.08008645	-0.20201428
3808	38.07000000	-0.87150207	-0.20148750	0.27110880	-0.62099252	0.07131758	-0.69741415	-0.61718755	-0.49209507	0.04918102	-0.82075869	-0.15191695	0.13747975	-0.55553129	0.60291690	0.10717064	-0.61154209	0.53673514	0.21944116	-0.69341120	-0.13676132	-0.35453823	-0.78291058	-0.07338749	-0.19091869
3809	38.08000000	-0.87488909	-0.19721249	0.27327173	-0.61937596	0.07167780	-0.70341318	-0.61808786	-0.49380509	0.05391429	-0.82055221	-0.16227695	0.13386778	-0.54345272	0.60718030	0.10616632	-0.61521679	0.53848828	0.22216129	-0.69612145	-0.13905219	-0.35386047	-0.78814559	-0.06370068	-0.17929949
3810	38.09000000	-0.87045415	-0.19615358	0.26932260	-0.62029111	0.07254505	-0.70227405	-0.61509981	-0.49083390	0.06792671	-0.81865152	-0.17153960	0.14239300	-0.53607968	0.62092833	0.10558564	-0.62126455	0.53733363	0.22053285	-0.70102373	-0.13346910	-0.35410320	-0.79556043	-0.04927727	-0.16192295
3811	38.10000000	-0.87371265	-0.19364808	0.27365386	-0.62143199	0.07314265	-0.70776590	-0.60993929	-0.49710510	0.06599406	-0.81648589	-0.17807413	0.14425299	-0.53364476	0.62148960	0.11094452	-0.62266932	0.53649934	0.22158027	-0.69764807	-0.13246087	-0.35308084	-0.80086233	-0.03914042	-0.14305413
3812	38.11000000	-0.87464219	-0.18723472	0.27203550	-0.62040191	0.06776698	-0.70016417	-0.60933881	-0.50105909	0.06579864	-0.81248880	-0.19604885	0.14758344	-0.52002978	0.62920239	0.12004531	-0.61952227	0.53570077	0.21064318	-0.69638985	-0.12723892	-0.34858820	-0.80145970	-0.02215382	-0.12803483
3813	38.12000000	-0.87510109	-0.18356959	0.27164836	-0.62408383	0.06619380	-0.70423507	-0.60610264	-0.50613290	0.06274646	-0.80727320	-0.20230385	0.14690336	-0.51115009	0.63245778	0.12037948	-0.62435811	0.52962938	0.21736805	-0.69696660	-0.12945274	-0.34947284	-0.80230702	-0.01369025	-0.12338060
3814	38.13000000	-0.87621722	-0.18435488	0.27383100	-0.62535198	0.06309409	-0.70864039	-0.60388277	-0.50906198	0.06686408	-0.80692621	-0.22086276	0.15236045	-0.51254901	0.63687492	0.11909438	-0.62554083	0.52602815	0.21620558	-0.69545145	-0.13602071	-0.34719805	-0.80003455	-0.01120758	-0.11273786
3815	38.14000000	-0.87591638	-0.17845027	0.27990884	-0.62490593	0.06133555	-0.70523524	-0.60662314	-0.51495678	0.06703141	-0.79920209	-0.23357049	0.15376009	-0.50400545	0.63958985	0.11782701	-0.63142988	0.52414130	0.22708557	-0.70336311	-0.13194090	-0.34401382	-0.80169692	-0.01442609	-0.11020002
3816	38.15000000	-0.87759682	-0.18017585	0.27978838	-0.62503088	0.06229034	-0.70689153	-0.60274525	-0.51339215	0.05849879	-0.79904694	-0.24645720	0.15221620	-0.50828317	0.63733010	0.11354197	-0.62794039	0.52274281	0.23117829	-0.70205945	-0.12851629	-0.34282140	-0.79873124	-0.02651898	-0.10590015
3817	38.16000000	-0.87860120	-0.17994245	0.28048665	-0.62488684	0.05868729	-0.70713328	-0.60707187	-0.51262282	0.06009666	-0.79102441	-0.26337839	0.15585620	-0.51359341	0.63529866	0.11290000	-0.62719272	0.52708193	0.24030161	-0.70394121	-0.12504087	-0.33824406	-0.80645560	-0.02916278	-0.11438089
3818	38.17000000	-0.87623609	-0.18140272	0.28042192	-0.62447406	0.05677613	-0.70943177	-0.60599745	-0.51863343	0.05347123	-0.78797825	-0.27155895	0.15275813	-0.51590587	0.63180438	0.12273315	-0.62710826	0.52511662	0.23764541	-0.70263459	-0.12303120	-0.34033842	-0.80082166	-0.04385938	-0.12538798
3819	38.18000000	-0.87780255	-0.17656582	0.27514203	-0.62718294	0.04950586	-0.70565843	-0.60347106	-0.52220564	0.05376084	-0.78182260	-0.28821046	0.15395068	-0.52313544	0.62534180	0.13158141	-0.62474174	0.52083486	0.24236450	-0.70070546	-0.11645135	-0.34251284	-0.80171405	-0.04870165	-0.12339651
3820	38.19000000	-0.87711861	-0.17742896	0.27696060	-0.63287256	0.04529480	-0.70733877	-0.60553084	-0.52249635	0.05735672	-0.77519827	-0.30045556	0.15339147	-0.52464551	0.62059860	0.13713098	-0.63182547	0.51382336	0.24390917	-0.70235092	-0.12065167	-0.33885637	-0.79650350	-0.05467419	-0.13055912
3821	38.20000000	-0.87401405	-0.18030232	0.28314985	-0.62926579	0.04230271	-0.71134610	-0.60696932	-0.52251564	0.04903675	-0.77173716	-0.31734691	0.15377997	-0.53753335	0.61357088	0.13864247	-0.63638138	0.51390835	0.24543094	-0.70601581	-0.11800316	-0.33605132	-0.79235807	-0.06983334	-0.14310944
3822	38.21000000	-0.87591768	-0.17426668	0.28086178	-0.63340141	0.03753976	-0.70851986	-0.60156156	-0.52287696	0.04686011	-0.76255924	-0.32843419	0.14995303	-0.54548165	0.60217752	0.13941777	-0.63823489	0.51245984	0.24985030	-0.71077674	-0.11655015	-0.33534098	-0.79316132	-0.07285849	-0.15117427
3823	38.22000000	-0.87428910	-0.17392680	0.28674660	-0.63236738	0.03540416	-0.70192100	-0.59992455	-0.53192877	0.04367695	-0.76274111	-0.33903590	0.15332843	-0.55045337	0.59664128	0.13779481	-0.63842887	0.50408375	0.24766439	-0.71124360	-0.12010206	-0.33746537	-0.79274013	-0.07494387	-0.15506079
3824	38.23000000	-0.87707932	-0.17659622	0.28092611	-0.62986378	0.03005482	-0.70655857	-0.60609326	-0.53736704	0.04526475	-0.75557627	-0.35123494	0.15095513	-0.55655774	0.59996443	0.13727409	-0.64050466	0.49815155	0.25177380	-0.70277641	-0.11828847	-0.33511754	-0.79190685	-0.08166970	-0.16730984
3825	38.24000000	-0.87695988	-0.17912603	0.28478482	-0.63246191	0.02651835	-0.70848759	-0.59754995	-0.53557120	0.03937190	-0.74776455	-0.36784994	0.15592614	-0.55728178	0.59057969	0.13590765	-0.65001388	0.49513377	0.25871190	-0.70440032	-0.11960715	-0.33109927	-0.78340600	-0.08509189	-0.18422956
3826	38.25000000	-0.87556364	-0.17647836	0.28853610	-0.64081715	0.02399998	-0.71178999	-0.59927567	-0.53440967	0.04397806	-0.74651841	-0.37641507	0.15567840	-0.56907803	0.58038366	0.13681464	-0.66031266	0.48277993	0.25520688	-0.71275984	-0.11872550	-0.33541142	-0.78114893	-0.08659007	-0.18461252
3827	38.26000000	-0.87840815	-0.17331333	0.28693777	-0.63141731	0.01531320	-0.71147734	-0.60081901	-0.53774487	0.03757956	-0.73700572	-0.38644020	0.15116988	-0.57205201	0.57897673	0.13096002	-0.66206397	0.47796749	0.25771091	-0.71127773	-0.11921796	-0.33050736	-0.77815101	-0.09113947	-0.20233597
3828	38.27000000	-0.87514884	-0.17300524	0.29006097	-0.62810700	0.01512606	-0.70834199	-0.59736219	-0.54095537	0.03298151	-0.73220308	-0.39858014	0.15448058	-0.58039202	0.56837215	0.13211729	-0.66382115	0.47119398	0.24506929	-0.70615344	-0.12169474	-0.33404668	-0.77497558	-0.09003764	-0.21246362
